<svg width="137" height="328" viewBox="0 0 137 328" fill="none" xmlns="http://www.w3.org/2000/svg">
<path d="M117.243 52.1643C117.769 47.1086 121.894 43.4749 126.481 44.0541C131.068 44.6334 134.365 49.18 133.839 54.2357C133.314 59.2913 129.188 62.9251 124.601 62.3458C120.014 61.7841 116.717 57.2199 117.243 52.1643Z" fill="#FCC9A7"/>
<path d="M122.356 50.0577L112.72 71.4565L120.62 76.0733L128.519 60.5728L122.356 50.0577Z" fill="#FCC9A7"/>
<path d="M58.5992 86.2022L101.905 111.287C103.625 112.376 105.823 111.638 106.699 109.672L126.783 69.4904L115.204 61.1872L99.07 90.9419L68.5855 69.7186C64.0622 65.8742 57.4843 67.577 54.9837 73.2295C52.9291 77.9516 54.5059 83.6041 58.5992 86.2022Z" fill="#6B594D"/>
<path d="M65.5435 209.434C65.5435 209.434 54.713 229.99 48.4855 243.296C47.514 245.368 45.9213 246.895 44.5037 248.633C40.2353 253.864 36.1898 259.516 31.4594 269.61C24.4196 284.654 12.6813 314.988 12.6813 314.988L4.47888 311.635L13.3184 278.247C13.3184 278.247 14.7996 248.896 31.8735 233.15C31.8735 233.15 36.5083 224.267 40.4901 206.959L65.5435 209.434Z" fill="#F2C09E"/>
<path d="M80.7062 200.551C80.7062 200.551 69.4616 279.002 71.341 317.569L61.6255 317.955L58.7745 284.075C58.7745 284.075 50.3013 260.78 58.8861 240.54L54.9202 195.004L80.7062 200.551Z" fill="#FCC9A7"/>
<path d="M52.6266 53.4457C52.6266 53.4457 41.8121 64.0837 44.5516 79.83C47.291 95.5938 55.2546 102.37 53.9167 112.762L84.7994 111.533L84.1623 92.2409C84.1623 92.2409 94.1964 83.7972 83.4456 70.333L74.1919 58.7121L65.8939 59.8882L52.6266 53.4457Z" fill="#6B594D"/>
<path d="M68.6971 50.8301L74.9565 54.8501L79.1453 62.6267L70.5128 59.7126L68.6971 50.8301Z" fill="#F7EBE7"/>
<path d="M65.9097 59.8882C64.0462 59.8706 62.0712 59.028 60.6059 58.1854C59.1566 57.3604 58.2646 55.6927 58.2646 53.8846L58.5673 20.8824L71.6594 20.9526L71.3567 53.5335C71.3408 57.3077 68.8881 59.9057 65.9097 59.8882Z" fill="#FCC9A7"/>
<path d="M71.4364 44.4052L66.037 35.9791C66.037 35.9791 62.7242 45.5989 71.4045 48.5832L71.4364 44.4052Z" fill="#F2C09E"/>
<path d="M83.2225 21.0228C83.1747 30.8532 75.9119 38.7703 67.0087 38.7352C58.0895 38.6825 50.8904 30.6777 50.9382 20.8648C50.986 11.0344 58.2488 3.09979 67.168 3.15245C76.0712 3.20511 83.2703 11.1924 83.2225 21.0228Z" fill="#FCC9A7"/>
<path d="M72.599 44.5105C68.3624 44.493 64.954 40.6837 64.9699 36.0142L65.0177 23.8315L83.2224 21.0228L83.1746 32.9598C83.1428 39.3671 78.4124 44.5281 72.599 44.5105Z" fill="#FCC9A7"/>
<path d="M82.7287 25.0076L86.2326 30.7479C86.7264 31.6783 86.0734 32.8193 85.0381 32.8193L80.9448 33.6444L82.7287 25.0076Z" fill="#FCC9A7"/>
<path d="M58.0577 47.7757L74.2079 58.7296L70.7039 66.3306L52.6266 53.4633C52.6266 53.4457 54.8882 49.0922 58.0577 47.7757Z" fill="#F7EBE7"/>
<path d="M53.9326 112.78L51.7188 121.1L85.2613 119.766L84.7994 111.551L53.9326 112.78Z" fill="#F7EBE7"/>
<path d="M85.2614 119.766L86.7903 213.313C86.7903 213.313 52.993 220.651 34.3901 207.942C34.3901 207.942 41.6529 177.854 40.2991 165.548C37.7826 142.991 40.6654 133.248 51.7507 121.083L85.2614 119.766Z" fill="#2FA7F1"/>
<path d="M58.6469 312.899C58.8858 311.969 59.7778 311.583 60.4308 312.144C61.689 313.268 63.9189 314.584 67.1043 314.075C70.4171 313.531 71.5798 311.319 71.978 309.739C72.185 308.914 72.8858 308.458 73.5388 308.774L94.1644 318.92C95.4227 319.535 96.4261 320.764 96.9676 322.308C97.4773 323.765 96.6491 325.398 95.3749 325.433L60.4945 326.153C59.1247 326.188 58.0099 324.748 58.0576 323.028L58.2806 314.532C58.2806 314.391 58.2966 314.251 58.3444 314.111L58.6469 312.899Z" fill="#1F252A"/>
<path d="M3.12516 305.14C3.58705 304.315 4.54268 304.192 5.0205 304.93C5.9602 306.387 7.79181 308.3 10.9932 308.739C14.306 309.195 15.9624 307.387 16.7428 305.983C17.141 305.246 17.9215 305.017 18.4789 305.509L35.935 321.308C37.0022 322.273 37.6711 323.73 37.8304 325.398C37.9737 326.96 36.7791 328.294 35.5528 327.943L1.73951 318.446C0.417562 318.078 -0.315101 316.375 0.130858 314.725L2.39253 306.597C2.42438 306.457 2.4881 306.334 2.55181 306.211L3.12516 305.14Z" fill="#1F252A"/>
<path d="M65.0337 28.7116L71.8983 28.4308C71.8983 28.4308 72.4877 21.8654 73.8255 20.2855C75.1634 18.7056 75.8483 11.6839 75.8483 11.6839C75.8483 11.6839 77.0747 16.0549 76.135 20.5839L86.0416 20.1978C86.0416 20.1978 88.1918 0.958164 66.4035 0.0277829C44.6152 -0.902599 45.2045 21.8128 49.4889 26.3242C52.8973 29.9053 58.424 36.2776 58.424 36.2776C58.424 36.2776 58.1692 28.9749 65.0337 28.7116Z" fill="#4C1827"/>
<path d="M70.0033 26.3769C70.0988 29.1856 68.108 31.5379 65.5596 31.6432C63.0113 31.7485 60.8771 29.5542 60.7815 26.7455C60.6859 23.9368 62.6768 21.5845 65.2251 21.4792C67.7735 21.3914 69.9077 23.5682 70.0033 26.3769Z" fill="#FCC9A7"/>
<path d="M52.5151 29.9931C52.7222 36.3302 48.2307 41.6668 42.481 41.895C36.7313 42.1232 31.8895 37.1729 31.6824 30.8182C31.4754 24.481 35.9668 19.1445 41.7165 18.9163C47.4821 18.6881 52.3081 23.6384 52.5151 29.9931Z" fill="#4C1827"/>
<path d="M64.0625 132.405C68.6017 133.283 71.6437 138.04 70.8633 143.061C70.067 148.064 65.7507 151.417 61.1955 150.556C56.6563 149.679 53.6143 144.922 54.3947 139.901C55.191 134.88 59.5232 131.528 64.0625 132.405Z" fill="#FCC9A7"/>
<path d="M66.8974 133.564L48.0875 121.697L43.4368 130.106L57.0067 139.725L66.8974 133.564Z" fill="#FCC9A7"/>
<path d="M47.0044 61.0994L16.8226 104.81C15.5484 106.495 15.8192 109.005 17.4278 110.304L50.0465 138.04L59.4754 126.928L35.4732 105.301L59.9691 74.8445C64.1898 70.6139 63.8235 63.1708 59.2046 59.4669C55.3662 56.3773 50.0465 57.1146 47.0044 61.0994Z" fill="#6B594D"/>
<path d="M136.913 31.6432L127.898 58.0274C127.659 58.7471 126.943 59.1158 126.29 58.8876L114.265 54.7096C113.548 54.4639 113.166 53.5862 113.452 52.8138L122.77 26.7806C123.025 26.096 123.693 25.7274 124.346 25.938L136.069 29.7473C136.801 29.9931 137.184 30.8532 136.913 31.6432Z" fill="#1C2226"/>
<path d="M133.871 32.7667L127.07 54.0777C126.911 54.5692 126.433 54.8501 125.971 54.7272L116.956 52.1467C116.415 51.9887 116.128 51.3567 116.335 50.795L124.06 29.2909C124.235 28.7994 124.729 28.5361 125.191 28.6941L133.282 31.4852C133.775 31.6432 134.046 32.2225 133.871 32.7667Z" fill="#EFEFEF"/>
</svg>
